<svg xmlns="http://www.w3.org/2000/svg" viewBox="0 0 418.13 428.57">
	<defs>
		<style>
			.cls-1{fill:#fff;}
		</style>
	</defs>
	<title>
		logo_monific
	</title>
	<g id="Capa_2" data-name="Capa 2">
		<g id="Capa_1-2" data-name="Capa 1">
			<g id="Capa_2-2" data-name="Capa 2">
				<g id="Capa_1-2-2" data-name="Capa 1-2">
					<path class="cls-1" d="M201.72,303.63,75,231.36v-23h0l132.29,75.45,139.46-93.15.84,22.49-135,90.15A10.49,10.49,0,0,1,201.72,303.63Zm10.92-48,133.24-89L345,144.16l-137.73,92L75,160.7h0v23L201.72,256a10.49,10.49,0,0,0,10.92-.36Zm0-47.62,131.51-87.84-.84-22.49-136,90.84L75,113.08h0v23l126.7,72.27a10.48,10.48,0,0,0,10.94-.35Zm0-47.62L339,76,207.57,0,75.46,88.23l-.44.21v.06l126.7,72.27a10.49,10.49,0,0,0,10.92-.37ZM172.65,366q10.42,10.22,10.43,25.46c0,10.15-3.48,18.64-10.29,25.46S157.34,427,147.05,427s-18.92-3.33-25.74-10.15l-.28-.29.54,1.27a18.93,18.93,0,0,1-2.81,3.12,31.65,31.65,0,0,1-7,5.23,18.38,18.38,0,0,1-9.22,2.39q-11.3,0-15.52-7.17t-4.23-18.61V389.58a89.23,89.23,0,0,0-.45-9.81,14.18,14.18,0,0,0-2.5-6.69c-1.36-1.89-3.48-2.84-6.34-2.84a13.59,13.59,0,0,0-7.59,2.15,11.8,11.8,0,0,0-4.61,5.2v49.28H41.66V393.6A93.62,93.62,0,0,0,41,381.3a17.8,17.8,0,0,0-2.84-8,7.44,7.44,0,0,0-6.49-3.09,13.47,13.47,0,0,0-7.34,2.15,12.72,12.72,0,0,0-4.79,4.92v49.56H0v-70l19.61-1.88-.07,8.88a24.54,24.54,0,0,1,8.53-6.8A25.56,25.56,0,0,1,40,354.09q13.3,0,17.75,10.68a36.31,36.31,0,0,1,11.12-7.84,32.11,32.11,0,0,1,13.41-2.84q20.18,0,20.17,30V395.4a86.67,86.67,0,0,0,.45,10.19,10.35,10.35,0,0,0,1.8,5.2,5,5,0,0,0,4.13,1.66,9.15,9.15,0,0,0,5-1.49q1-.61,1.92-1.32A35.61,35.61,0,0,1,111,391.42c0-10.16,3.48-18.65,10.3-25.46A35.49,35.49,0,0,1,147,355.66C157.2,355.66,165.83,359.14,172.65,366Zm-9.74,25.46A17.81,17.81,0,0,0,158.46,379a15.83,15.83,0,0,0-22.37-.45l-.45.45a19.47,19.47,0,0,0,0,24.77,15.8,15.8,0,0,0,22.34.48l.48-.48a17.75,17.75,0,0,0,4.45-12.35Zm60.17-35.76a22.36,22.36,0,0,0-16.14,6.4v-4.73H187.46V425.5h19.76V391.42c0-11.55,4.17-17.39,12.52-17.39,7.65,0,11.27,5.56,11.27,13.35V425.5h19.9V385.85c0-19.06-11-30.19-27.83-30.19ZM268,326.44A11.5,11.5,0,1,0,279.58,338a11.35,11.35,0,0,0-11.14-11.56Zm-9.88,99.06H278V357.33h-19.9Zm32.27-70.12v1.95h-8.91v18.23h8.91V425.5H310V375.56h15V357.33H310v-.83c0-6.82,3.48-9.88,12.25-9.88h3.34V328l-5.15-.13c-18.34,0-30,9.13-30,27.51ZM338,326.44a11.5,11.5,0,0,0,0,23h0A11.59,11.59,0,0,0,349.56,338a11.35,11.35,0,0,0-11.14-11.56Zm-9.88,99.06H348V357.33H328.1Zm76.65-25.87c-4.59,6-9.88,8.9-15.86,8.9-9.46,0-16.56-7.1-16.56-17.11s7.1-17.12,16.56-17.12c5.28,0,10.15,2.65,14.47,7.94l13.35-12.94c-8.21-9.05-17.67-13.64-28.52-13.64A35.45,35.45,0,0,0,362.48,366c-6.82,6.81-10.29,15.3-10.29,25.46s3.47,18.64,10.29,25.46S377.93,427,388.22,427c12.66,0,22.54-4.87,29.91-14.46Z" />
				</g>
			</g>
		</g>
	</g>
</svg>
